<svg width="200" height="200" viewBox="0 0 630 630" xmlns="http://www.w3.org/2000/svg">
  <rect width="630" height="630" fill="#f7df1e"/>
  <path d="M423.2 492.19c13.38 21.86 30.79 37.83 61.58 37.83 25.84 0 42.36-12.93 42.36-30.79 0-21.41-17.06-28.99-45.72-41.44l-15.72-6.74c-45.51-19.37-75.7-43.65-75.7-94.92 0-47.21 36.01-83.28 92.32-83.28 40.09 0 68.94 13.96 89.66 50.52l-48.99 31.45c-10.78-19.37-22.44-26.93-40.67-26.93-18.53 0-30.3 11.77-30.3 26.93 0 18.85 11.77 26.43 38.94 37.83l15.72 6.74c53.5 22.84 83.7 45.23 83.7 96.98 0 55.57-43.73 86.02-102.45 86.02-57.45 0-94.46-27.33-112.39-62.97l50.62-29.19zm-202.41 5.34c9.59 16.98 18.29 31.36 39.03 31.36 19.94 0 32.63-7.79 32.63-38.08V284.17h60.94v207.11c0 63.18-37.02 91.93-91.03 91.93-48.79 0-77.12-25.3-91.64-55.98l50.07-29.7z" fill="#000"/>
</svg>
