<svg viewBox="0 0 48 48" fill="none" xmlns="http://www.w3.org/2000/svg">
  <g clip-path="url(#clip0)">
    <path fill-rule="evenodd" clip-rule="evenodd"
      d="M24 12c-5.333 0-8.667 2.667-10 8 2-2.667 4.333-3.667 7-3 1.523.38 2.598 1.473 3.815 2.707C26.794 21.91 28.237 23.378 31 23.378c5.333 0 8.667-2.667 10-8-2 2.667-4.333 3.667-7 3-1.523-.38-2.598-1.473-3.815-2.707C28.206 14.09 26.763 12 24 12zm-10 12c-5.333 0-8.667 2.667-10 8 2-2.667 4.333-3.667 7-3 1.523.38 2.598 1.473 3.815 2.707C16.794 32.91 18.237 34.378 21 34.378c5.333 0 8.667-2.667 10-8-2 2.667-4.333 3.667-7 3-1.523-.38-2.598-1.473-3.815-2.707C18.206 26.09 16.763 24 14 24z"
      fill="#38BDF8" />
  </g>
  <defs>
    <clipPath id="clip0">
      <rect width="48" height="48" fill="white" />
    </clipPath>
  </defs>
</svg>
